<?xml version="1.0" standalone="no"?>
<!DOCTYPE svg PUBLIC "-//W3C//DTD SVG 20010904//EN"
 "http://www.w3.org/TR/2001/REC-SVG-20010904/DTD/svg10.dtd">
<svg version="1.0" xmlns="http://www.w3.org/2000/svg"
 width="128.000000pt" height="128.000000pt" viewBox="0 0 128.000000 128.000000"
 preserveAspectRatio="xMidYMid meet">
<metadata>
Created by potrace 1.14, written by Peter Selinger 2001-2017
</metadata>
<g transform="translate(0.000000,128.000000) scale(0.100000,-0.100000)"
fill="#000000" stroke="none">
<path d="M0 640 l0 -640 640 0 640 0 0 640 0 640 -640 0 -640 0 0 -640z m350
140 c0 -13 7 -20 20 -20 17 0 20 -7 20 -45 0 -38 -3 -45 -20 -45 -15 0 -20 -7
-20 -25 0 -18 5 -25 20 -25 18 0 20 -7 20 -65 l0 -65 -45 0 -45 0 0 65 0 65
-65 0 -65 0 0 -65 0 -65 -45 0 -45 0 0 155 0 155 135 0 c128 0 135 -1 135 -20z
m400 0 c0 -15 7 -20 25 -20 20 0 25 -5 25 -25 0 -23 -4 -25 -45 -25 -41 0 -45
2 -45 25 0 24 -2 25 -70 25 l-70 0 0 -45 0 -45 90 0 c89 0 90 0 90 -25 0 -20
5 -25 25 -25 23 0 25 -4 25 -45 0 -41 -2 -45 -25 -45 -18 0 -25 -5 -25 -20 0
-19 -7 -20 -110 -20 -103 0 -110 1 -110 20 0 15 -7 20 -25 20 -20 0 -25 5 -25
25 0 23 4 25 45 25 41 0 45 -2 45 -25 0 -24 2 -25 70 -25 l70 0 0 45 0 45 -90
0 c-89 0 -90 0 -90 25 0 20 -5 25 -25 25 -23 0 -25 4 -25 45 0 41 2 45 25 45
18 0 25 5 25 20 0 19 7 20 110 20 103 0 110 -1 110 -20z m410 0 c0 -13 7 -20
20 -20 15 0 20 -7 20 -25 0 -23 -4 -25 -45 -25 -41 0 -45 2 -45 25 0 24 -2 25
-65 25 l-65 0 0 -45 0 -45 90 0 c89 0 90 0 90 -25 0 -18 5 -25 20 -25 17 0 20
-7 20 -45 0 -38 -3 -45 -20 -45 -13 0 -20 -7 -20 -20 0 -19 -7 -20 -115 -20
-108 0 -115 1 -115 20 0 13 -7 20 -20 20 -15 0 -20 7 -20 25 0 23 4 25 45 25
41 0 45 -2 45 -25 0 -24 2 -25 65 -25 l65 0 0 45 0 45 -90 0 c-89 0 -90 0 -90
25 0 18 -5 25 -20 25 -17 0 -20 7 -20 45 0 38 3 45 20 45 13 0 20 7 20 20 0
19 7 20 115 20 108 0 115 -1 115 -20z"/>
<path d="M170 710 l0 -40 65 0 65 0 0 40 0 40 -65 0 -65 0 0 -40z"/>
</g>
</svg>
